<svg width="600" height="829" viewBox="0 0 600 829" fill="none" xmlns="http://www.w3.org/2000/svg">
<path d="M421.002 807.831C487.828 807.831 542.001 753.658 542.001 686.832C542.001 620.005 487.828 565.832 421.002 565.832C354.175 565.832 300.002 620.005 300.002 686.832C300.002 753.658 354.175 807.831 421.002 807.831Z" fill="white"/>
<path d="M299.999 371.652C213.335 371.652 142.428 300.746 142.428 214.081V157.571C142.428 70.9061 213.335 0 299.999 0C386.664 0 457.571 70.9061 457.571 157.571V214.081C457.571 300.746 386.664 371.652 299.999 371.652Z" fill="#6EB1E1"/>
<path d="M392.768 394.001L300 501.12L207.232 394.001C90.0709 413.497 0 515.866 0 638.338V801.331C0 816.253 12.2058 828.449 27.1179 828.449H572.882C587.803 828.449 600 816.243 600 801.331V638.329C600 515.866 509.92 413.497 392.768 394.001ZM504.388 707.634C504.388 713.773 499.408 718.753 493.268 718.753H457.58V754.441C457.58 760.581 452.6 765.561 446.461 765.561H407.975C401.835 765.561 396.855 760.581 396.855 754.441V718.753H361.167C355.027 718.753 350.048 713.773 350.048 707.634V669.166C350.048 663.026 355.027 658.046 361.167 658.046H396.855V622.349C396.855 616.21 401.835 611.23 407.975 611.23H446.442C452.582 611.23 457.562 616.21 457.562 622.349V658.037H493.25C499.389 658.037 504.369 663.017 504.369 669.157V707.634H504.388Z" fill="#6EB1E1"/>
</svg>
